<?xml version="1.0" encoding="UTF-8"?>
<svg id="Layer_2" data-name="Layer 2" xmlns="http://www.w3.org/2000/svg" viewBox="0 0 419.32 439.19">
  <defs>
    <style>
      .cls-1 {
        fill: #ffd128;
      }

      .cls-1, .cls-2, .cls-3, .cls-4, .cls-5, .cls-6, .cls-7 {
        stroke: #231f20;
        stroke-miterlimit: 10;
      }

      .cls-1, .cls-2, .cls-4, .cls-6 {
        stroke-width: 4px;
      }

      .cls-2 {
        fill: #d72027;
      }

      .cls-3 {
        fill: #fdc06c;
        stroke-width: 5px;
      }

      .cls-4 {
        fill: #63bc46;
      }

      .cls-5 {
        fill: #feef8c;
        stroke-width: 3px;
      }

      .cls-6 {
        fill: #774f20;
      }

      .cls-7 {
        fill: #ed2224;
      }
    </style>
  </defs>
  <g id="Layer_1-2" data-name="Layer 1">
    <g>
      <rect class="cls-7" x=".5" y=".5" width="418.32" height="438.19" rx="40" ry="40"/>
      <path class="cls-3" d="M297.22,296.34c-.67-.77-1.37-1.53-2.13-2.22-1.66-1.5-3.41-2.8-5.26-3.89-6.12,3.2-13.65,3.82-19.22-1.06-2.28-2-3.56-4.96-3.53-7.95-3.99-3.06-7.54-7.35-9.4-11.83-.26-.63-.46-1.39-.64-2.19-3.19,1.41-6.74,1.43-10.25.92-1.69-.25-3.03-1.97-3.49-3.49-.03-.1-.05-.2-.08-.3h-2.64c-.58.08-1.18.12-1.79.1-.36-.01-.72-.05-1.07-.1H93.72c-1.48,6.11-3.15,17.05,1.19,28.57,6.25,16.57,20.19,28.57,29.02,28.57h185.71c.69-.63,1.48-1.38,2.32-2.23-8.89-5.15-15-13.73-14.74-22.9Z"/>
      <path class="cls-6" d="M228,257.28c-5.74-8.27-6.05-18.97-15.74-24.19-1.69-.91-2.65-3.03-2.44-4.96-.26-.16-.5-.33-.75-.51h-95.48c-11.55-1.5-21.43,7.6-21.43,17.86s9.88,19.36,21.43,17.86h120.98c-2.68-1.32-4.91-3.65-6.58-6.06Z"/>
      <path class="cls-2" d="M204.23,220.66c-1.21-5.21,1.53-8.65,5.44-10.78-.15-.3-.3-.6-.45-.89-2.12-1.03-4.63-1.69-7.35-1.81h-74.73c-9.63-.84-17.33,4.36-17.94,9.52-.67,5.67,7.07,12.56,17.94,11.9h74.73c2.37-.2,4.5-.8,6.34-1.66-1.91-1.59-3.36-3.65-3.97-6.28Z"/>
      <path class="cls-1" d="M212.26,233.09c-1.68-.91-2.66-3.02-2.46-4.95l-97.7.96,106.33,28.29c2.32-1.56,4.64-3.11,6.96-4.67-3.53-7.31-5.15-15.32-13.13-19.62Z"/>
      <path class="cls-4" d="M205.87,202.76c-1.96-3.88-3.61-7.83-4.65-11.86h-89.29c-7.93-.46-14.85,2.62-16.48,7.14-2.08,5.79,3.75,16.08,16.48,19.05,4.59-5.43,11.6-11.82,20.24-11.9,12.37-.12,15.64,12.81,28.57,14.29,15.7,1.78,20.42-16.18,36.9-15.48,4.44.19,7.87,1.65,10.84,3.64-.9-1.67-1.82-3.3-2.62-4.88Z"/>
      <path class="cls-3" d="M271.3,107.01c-20.57-1.01-41.97-1.63-64.14-1.75-23.5-.13-46.15.31-67.86,1.19-39.13,14.77-61.23,42.58-57.14,64.29.82,4.36,3.37,12.06,13.03,20.24h106.05c-.52-1.99-.87-4.01-1.05-6.04-.59-3.2-.08-6.48-.95-9.6-.67-2.41.83-5.68,3.49-6.15,2.51-.44,4.95-.56,7.33-.1,2.02-.43,3.85-1.75,5.47-3.37.21-4.89,2.29-9.39,6.69-12.35,1.45-.98,3.02-1.66,4.63-2.08,1.69-1.96,3.52-3.81,5.63-5.4,1.53-1.16,3.2-2.39,4.98-3.64-.26-2.49-.31-5.01-.32-7.52,0-2.22,1.56-4.2,3.67-4.82,6.03-1.78,12.02-1.68,17.39.63,2.68-5.24,7.81-8.99,14.15-9.43,7.35-.52,12.61,3.8,14.5,9.97,7.91-.54,14.18,4.36,17.99,12.13,2.29,4.66,3.86,9.63,5.86,14.41,1.03,2.47,2.2,5.27,3.99,7.42,4.25-7.78,10.33-14.77,17.26-20.29-11.09-14.64-32.22-28.78-60.68-37.73Z"/>
      <path class="cls-5" d="M125.53,138.1c-4.79,3.69-4.5,9.14-.94,9.91,3.42.75,9.96-2.8,13.19-5.66,3.14-2.78,5.92-7.37,2.83-8.5-2.98-1.09-11.05,1.14-15.08,4.25Z"/>
      <path class="cls-5" d="M181.02,126.45c-4.79,3.69-4.5,9.14-.94,9.91,3.42.75,9.96-2.8,13.19-5.66,3.14-2.78,5.92-7.37,2.83-8.5-2.98-1.09-11.05,1.14-15.08,4.25Z"/>
      <path class="cls-5" d="M308.32,151.44c.45-1.39.22-2.56-1.14-3.05-.01,0-.03,0-.05-.01.41,1.02.8,2.04,1.19,3.07Z"/>
      <path class="cls-5" d="M258.22,130.53c1.37-2.67,3.37-4.95,5.84-6.6-3.72.32-9.01,2.15-12.03,4.48-.17.13-.32.27-.48.41,2.29.24,4.53.8,6.66,1.71Z"/>
      <path class="cls-5" d="M206.44,145.37c-4.79,3.69-4.5,9.14-.94,9.91,3.42.75,9.96-2.8,13.19-5.66,3.14-2.78,5.92-7.37,2.83-8.5-2.98-1.09-11.05,1.14-15.08,4.25Z"/>
      <path class="cls-5" d="M165.95,160.91c-4.79,3.69-4.5,9.14-.94,9.91,3.42.75,9.96-2.8,13.19-5.66,3.14-2.78,5.92-7.37,2.83-8.5-2.98-1.09-11.05,1.14-15.08,4.25Z"/>
      <path class="cls-5" d="M115.52,174.06c-4.79,3.69-4.5,9.14-.94,9.91,3.42.75,9.96-2.8,13.19-5.66,3.14-2.78,5.92-7.37,2.83-8.5-2.98-1.09-11.05,1.14-15.08,4.25Z"/>
    </g>
  </g>
</svg>